<svg width="100" height="31" viewBox="0 0 100 31" fill="none" xmlns="http://www.w3.org/2000/svg">
<path d="M50.0001 3.75781V7.51539H44.5653V22.5457H40.528V7.51539H35.0933V3.75781H50.0001Z" fill="#222222"/>
<path d="M32.9193 0H29.1926V3.75758H32.9193V0Z" fill="#222222"/>
<path d="M29.1924 18.7881V3.75781H21.4285V7.51539H25.1552V18.7881H21.4285V22.5457H32.9192V18.7881H29.1924Z" fill="#222222"/>
<path d="M13.8199 13.4336V12.9012C15.9627 12.3689 16.8012 10.8346 16.8012 8.7366C16.8012 5.73054 14.3478 3.75781 10.2795 3.75781H0V7.51539H3.72671V18.7881H0V22.5457H10.2795C14.3478 22.5457 16.8012 20.573 16.8012 17.5669C16.8012 15.5002 15.9627 13.9346 13.8199 13.4336ZM12.6087 18.7881H7.76397V15.0305H12.6397V18.7881H12.6087ZM12.6087 11.273H7.76397V7.51539H12.6397V11.273H12.6087Z" fill="#222222"/>
<path d="M50.4778 14.6861H50.8815V12.0245H50.4778V11.2729H52.279C52.4654 11.2729 52.6517 11.3043 52.807 11.3669C52.9623 11.4295 53.0865 11.4921 53.1796 11.5861C53.2728 11.68 53.366 11.8053 53.4281 11.9305C53.4902 12.0558 53.5213 12.2123 53.5213 12.3689V12.4315C53.5213 12.682 53.4591 12.8699 53.3349 12.9952C53.2107 13.1517 53.0244 13.2457 52.838 13.277V13.3709C53.0244 13.4336 53.2107 13.5275 53.3349 13.6841C53.4591 13.8406 53.5213 14.0285 53.5213 14.2477V14.3103C53.5213 14.4669 53.4902 14.6235 53.4281 14.7487C53.366 14.874 53.3039 14.9992 53.1796 15.0932C53.0865 15.1871 52.9623 15.281 52.807 15.3123C52.6517 15.375 52.4964 15.4063 52.279 15.4063H50.4778V14.6861ZM51.6579 12.9639H52.2169C52.3722 12.9639 52.5275 12.9325 52.6206 12.8699C52.7138 12.8073 52.7759 12.682 52.7759 12.5255V12.4942C52.7759 12.3376 52.7138 12.2123 52.6206 12.1497C52.5275 12.0871 52.3722 12.0558 52.2169 12.0558H51.6579V12.9639ZM51.6579 14.6861H52.2169C52.3722 14.6861 52.5275 14.6548 52.6206 14.5921C52.7138 14.5295 52.7759 14.4043 52.7759 14.2477V14.2164C52.7759 14.0598 52.7138 13.9346 52.6206 13.8719C52.5275 13.8093 52.3722 13.778 52.2169 13.778H51.6579V14.6861Z" fill="#222222"/>
<path d="M56.1611 14.9993C56.0679 15.1871 55.9748 15.3124 55.8195 15.4063C55.6642 15.469 55.5089 15.5316 55.3226 15.5316C55.1363 15.5316 54.981 15.5003 54.8257 15.4376C54.6704 15.375 54.5462 15.2811 54.422 15.1558C54.2978 15.0306 54.2046 14.874 54.1425 14.6861C54.0804 14.4982 54.0493 14.2791 54.0493 14.0599V13.9659C54.0493 13.7467 54.0804 13.5275 54.1425 13.3397C54.2046 13.1518 54.2978 12.9952 54.422 12.87C54.5462 12.7447 54.6704 12.6508 54.8257 12.5568C54.981 12.4942 55.1363 12.4629 55.3226 12.4629C55.54 12.4629 55.6953 12.4942 55.8195 12.5568C55.9437 12.6195 56.0369 12.7447 56.1301 12.9013H56.2232V12.5568H56.9686V14.6235C56.9686 14.7488 57.0307 14.8114 57.1238 14.8114H57.2481V15.5316H56.7512C56.627 15.5316 56.5027 15.5003 56.4096 15.4063C56.3164 15.3124 56.2853 15.2184 56.2853 15.0932H56.1611V14.9993ZM55.5089 14.8114C55.7263 14.8114 55.9127 14.7488 56.0369 14.5922C56.1611 14.4356 56.2232 14.2477 56.2232 13.9972V13.9346C56.2232 13.6841 56.1611 13.4962 56.0369 13.3397C55.9127 13.1831 55.7263 13.1205 55.5089 13.1205C55.2915 13.1205 55.1052 13.1831 54.981 13.3397C54.8568 13.4962 54.7947 13.6841 54.7947 13.9346V13.9972C54.7947 14.2477 54.8568 14.4356 54.981 14.5922C55.1052 14.7174 55.2915 14.8114 55.5089 14.8114Z" fill="#222222"/>
<path d="M57.8379 14.7174H58.8627V11.9932H57.8689V11.2729H59.6081V14.7174H60.5708V15.4376H57.8379V14.7174Z" fill="#222222"/>
<path d="M61.3782 12.4942H62.2478V11.2729H62.9931V12.4942H64.049V13.2144H62.9931V14.5608C62.9931 14.6861 63.0552 14.7487 63.1484 14.7487H63.9248V15.4689H62.6826C62.5583 15.4689 62.4341 15.4376 62.3409 15.3437C62.2478 15.2497 62.2167 15.1558 62.2167 14.9992V13.2457H61.3472V12.4942H61.3782Z" fill="#222222"/>
<path d="M65.136 14.7173H66.1298V13.183H65.1981V12.4628H66.8441V14.7173H67.6826V15.4375H65.105V14.7173H65.136ZM67.0304 11.6173C67.0304 11.7113 67.0304 11.7739 66.9994 11.8365C66.9683 11.8992 66.9373 11.9618 66.8752 12.0244C66.8131 12.087 66.7509 12.1184 66.6888 12.1497C66.6267 12.181 66.5335 12.181 66.4714 12.181C66.3783 12.181 66.3162 12.181 66.254 12.1497C66.1919 12.1184 66.1298 12.087 66.0677 12.0244C66.0056 11.9618 65.9745 11.9305 65.9435 11.8365C65.9124 11.7426 65.9124 11.68 65.9124 11.6173C65.9124 11.5234 65.9124 11.4608 65.9435 11.3982C65.9745 11.3355 66.0056 11.2729 66.0677 11.2103C66.1298 11.1477 66.1919 11.1163 66.254 11.085C66.3162 11.0537 66.3783 11.0537 66.4714 11.0537C66.5335 11.0537 66.6267 11.0537 66.6888 11.085C66.7509 11.1163 66.8131 11.1477 66.8752 11.2103C66.9373 11.2729 66.9683 11.3042 66.9994 11.3982C67.0304 11.4608 67.0304 11.5234 67.0304 11.6173Z" fill="#222222"/>
<path d="M71.5336 14.3417C71.4715 14.6862 71.3162 14.968 71.0678 15.1872C70.8193 15.4064 70.4777 15.5003 70.074 15.5003C69.8566 15.5003 69.6703 15.469 69.4839 15.4064C69.2976 15.3438 69.1423 15.2498 68.987 15.1246C68.8628 14.9993 68.7386 14.8428 68.6765 14.6549C68.5833 14.467 68.5522 14.2478 68.5522 14.0286V13.966C68.5522 13.7155 68.5833 13.5276 68.6765 13.3397C68.7696 13.1518 68.8628 12.9953 69.0181 12.8387C69.1423 12.7135 69.3286 12.5882 69.515 12.5256C69.7013 12.463 69.8876 12.4316 70.105 12.4316C70.5088 12.4316 70.8504 12.5256 71.0988 12.7448C71.3473 12.964 71.5025 13.2458 71.5647 13.5902L70.8504 13.7781C70.8193 13.5902 70.7572 13.465 70.633 13.3397C70.5088 13.2145 70.3224 13.1518 70.105 13.1518C70.0119 13.1518 69.8876 13.1832 69.7945 13.2145C69.7013 13.2458 69.6081 13.3084 69.546 13.371C69.4839 13.4337 69.4218 13.5276 69.3908 13.6529C69.3597 13.7468 69.3286 13.872 69.3286 13.9973V14.0286C69.3286 14.1539 69.3597 14.2791 69.3908 14.3731C69.4218 14.467 69.4839 14.5609 69.546 14.6236C69.6081 14.6862 69.7013 14.7488 69.7945 14.7801C69.8876 14.8114 69.9808 14.8428 70.105 14.8428C70.3224 14.8428 70.5088 14.7801 70.633 14.6862C70.7572 14.5609 70.8193 14.4044 70.8504 14.2165L71.5336 14.3417Z" fill="#222222"/>
<path d="M50.6331 18.3809H53.397V19.1324H52.4033V21.794H53.397V22.5455H50.6331V21.794H51.6268V19.1324H50.6331V18.3809Z" fill="#222222"/>
<path d="M55.0119 22.5456H54.2666V19.6022H55.0119V20.0406H55.1051C55.1672 19.884 55.2914 19.7587 55.4157 19.6648C55.5709 19.5709 55.7262 19.5396 55.9436 19.5396C56.0989 19.5396 56.2231 19.5709 56.3473 19.6022C56.4716 19.6335 56.5647 19.7274 56.689 19.8214C56.7821 19.9153 56.8442 20.0406 56.9064 20.1971C56.9685 20.3537 56.9995 20.5103 56.9995 20.7294V22.5456H56.2542V20.886C56.2542 20.6668 56.1921 20.5103 56.0989 20.385C56.0057 20.2598 55.8505 20.1971 55.6641 20.1971C55.4467 20.1971 55.2915 20.2598 55.1672 20.4163C55.0741 20.5729 55.0119 20.7608 55.0119 21.0113V22.5456Z" fill="#222222"/>
<path d="M58.801 20.4476C58.801 20.5415 58.8631 20.6041 58.9563 20.6668C59.0495 20.6981 59.2358 20.7294 59.4842 20.7607C59.7948 20.792 60.0122 20.886 60.1985 21.0425C60.3849 21.1991 60.478 21.387 60.478 21.6688V21.7001C60.478 21.9819 60.3849 22.2324 60.1675 22.389C59.9501 22.5769 59.6706 22.6395 59.2669 22.6395C59.0495 22.6395 58.8321 22.6082 58.6768 22.5455C58.5215 22.4829 58.3973 22.4203 58.2731 22.3264C58.1799 22.2324 58.0867 22.1385 58.0246 22.0445C57.9625 21.9506 57.9314 21.8253 57.9004 21.7314L58.5836 21.5122C58.6147 21.6375 58.6768 21.7627 58.77 21.8567C58.8631 21.9506 59.0184 22.0132 59.2358 22.0132C59.4221 22.0132 59.5464 21.9819 59.6085 21.9193C59.6706 21.8567 59.7016 21.794 59.7016 21.7314C59.7016 21.7001 59.7016 21.6688 59.6706 21.6062C59.6395 21.5748 59.6085 21.5435 59.5774 21.5122C59.5153 21.4809 59.4532 21.4496 59.3911 21.4496C59.2979 21.4183 59.2047 21.4183 59.0805 21.387C58.7389 21.3556 58.4905 21.2617 58.3041 21.1365C58.1178 20.9799 58.0246 20.792 58.0246 20.5102V20.4789C58.0246 20.3223 58.0557 20.1971 58.1178 20.1031C58.1799 19.9779 58.2731 19.8839 58.3662 19.8213C58.4594 19.7587 58.5836 19.6961 58.7078 19.6334C58.8321 19.6021 58.9874 19.5708 59.1116 19.5708C59.2979 19.5708 59.4532 19.6021 59.5774 19.6334C59.7016 19.6647 59.8259 19.7274 59.919 19.8213C60.0122 19.8839 60.0743 19.9779 60.1364 20.0718C60.1985 20.1657 60.2296 20.2597 60.2606 20.3223L59.5774 20.6041C59.5464 20.5102 59.4842 20.4163 59.3911 20.3536C59.2979 20.291 59.2047 20.2597 59.0495 20.2597C58.9252 20.2597 58.8321 20.291 58.77 20.3223C58.8321 20.3223 58.801 20.3536 58.801 20.4476Z" fill="#222222"/>
<path d="M61.3782 19.6021H62.2478V18.3809H62.9931V19.6021H64.049V20.3223H62.9931V21.6687C62.9931 21.794 63.0552 21.8566 63.1484 21.8566H63.9248V22.5455H62.6826C62.5583 22.5455 62.4341 22.5142 62.3409 22.4203C62.2478 22.3263 62.2167 22.2324 62.2167 22.0758V20.3223H61.3472V19.6021H61.3782Z" fill="#222222"/>
<path d="M65.136 21.8253H66.1298V20.2909H65.1981V19.5707H66.8441V21.7939H67.6826V22.5455H65.105V21.8253H65.136ZM67.0304 18.7253C67.0304 18.8192 67.0304 18.8818 66.9994 18.9444C66.9683 19.0071 66.9373 19.0697 66.8752 19.1323C66.8131 19.195 66.7509 19.2263 66.6888 19.2576C66.6267 19.2889 66.5335 19.2889 66.4714 19.2889C66.3783 19.2889 66.3162 19.2889 66.254 19.2576C66.1919 19.2263 66.1298 19.195 66.0677 19.1323C66.0056 19.0697 65.9745 19.0384 65.9435 18.9444C65.9124 18.8818 65.9124 18.7879 65.9124 18.7253C65.9124 18.6313 65.9124 18.5687 65.9435 18.5061C65.9745 18.4434 66.0056 18.3808 66.0677 18.3182C66.1298 18.2556 66.1919 18.2242 66.254 18.1929C66.3162 18.1616 66.3783 18.1616 66.4714 18.1616C66.5335 18.1616 66.6267 18.1616 66.6888 18.1929C66.7509 18.2242 66.8131 18.2556 66.8752 18.3182C66.9373 18.3808 66.9683 18.4121 66.9994 18.5061C67.0304 18.5687 67.0304 18.6626 67.0304 18.7253Z" fill="#222222"/>
<path d="M68.5833 19.6021H69.4529V18.3809H70.1982V19.6021H71.2541V20.3223H70.1982V21.6687C70.1982 21.794 70.2603 21.8566 70.3535 21.8566H71.1299V22.5455H69.8877C69.7634 22.5455 69.6392 22.5142 69.546 22.4203C69.4529 22.3263 69.4218 22.2324 69.4218 22.0758V20.3223H68.5522V19.6021H68.5833Z" fill="#222222"/>
<path d="M74.2666 19.6021H75.012V22.5455H74.2666V22.1072H74.1735C74.0492 22.4516 73.7697 22.6082 73.335 22.6082C73.1797 22.6082 73.0555 22.5769 72.9312 22.5455C72.807 22.4829 72.6828 22.4203 72.5896 22.3264C72.4964 22.2324 72.4343 22.1072 72.3722 21.9506C72.3101 21.794 72.2791 21.6375 72.2791 21.4183V19.5708H73.0244V21.293C73.0244 21.5122 73.0865 21.6688 73.1797 21.794C73.2728 21.9193 73.4281 21.9819 73.6145 21.9819C73.8318 21.9819 73.9871 21.9193 74.1114 21.7627C74.2045 21.6062 74.2666 21.4183 74.2666 21.1678V19.6021Z" fill="#222222"/>
<path d="M75.7884 19.6021H76.6579V18.3809H77.4033V19.6021H78.4592V20.3223H77.4033V21.6687C77.4033 21.794 77.4654 21.8566 77.5586 21.8566H78.335V22.5455H77.0927C76.9685 22.5455 76.8443 22.5142 76.7511 22.4203C76.658 22.3263 76.6269 22.2324 76.6269 22.0758V20.3223H75.7573V19.6021H75.7884Z" fill="#222222"/>
<path d="M80.1363 21.324C80.1363 21.418 80.1673 21.4806 80.1984 21.5745C80.2294 21.6372 80.2915 21.6998 80.3537 21.7624C80.4158 21.825 80.4779 21.8564 80.571 21.8877C80.6642 21.919 80.7574 21.919 80.8505 21.919C81.0369 21.919 81.1611 21.8877 81.2853 21.825C81.3785 21.7624 81.4406 21.6685 81.5027 21.6059L82.1238 21.9503C82.0928 22.0129 82.0307 22.1069 81.9686 22.1695C81.9065 22.2634 81.8133 22.3261 81.7201 22.3887C81.627 22.4513 81.5027 22.5139 81.3474 22.5453C81.1922 22.5766 81.0369 22.6079 80.8505 22.6079C80.6332 22.6079 80.4158 22.5766 80.2605 22.5139C80.0741 22.4513 79.9189 22.3261 79.7946 22.2008C79.6704 22.0756 79.5462 21.8877 79.4841 21.6998C79.422 21.5119 79.3599 21.2927 79.3599 21.0422V21.0109C79.3599 20.7917 79.3909 20.5725 79.4841 20.3846C79.5462 20.1968 79.6704 20.0402 79.7946 19.9149C79.9189 19.7897 80.0741 19.6958 80.2605 19.6018C80.4468 19.5392 80.6332 19.4766 80.8195 19.4766C81.0679 19.4766 81.2853 19.5079 81.4717 19.6018C81.658 19.6958 81.8133 19.7897 81.9065 19.9463C82.0307 20.0715 82.1238 20.2281 82.1549 20.3846C82.217 20.5412 82.2481 20.6978 82.2481 20.8543V21.2614H80.1363V21.324ZM80.8195 20.1968C80.6332 20.1968 80.4779 20.2594 80.3537 20.3533C80.2294 20.4473 80.1673 20.5725 80.1363 20.6978H81.5027C81.4717 20.5725 81.4096 20.4473 81.2853 20.3533C81.1611 20.2281 81.0058 20.1968 80.8195 20.1968Z" fill="#222222"/>
<path d="M53.5213 28.2449C53.5213 28.4954 53.4902 28.7146 53.397 28.9024C53.3039 29.0903 53.2107 29.2469 53.0554 29.3721C52.9001 29.4974 52.7449 29.5913 52.5585 29.6539C52.3722 29.7166 52.1859 29.7479 51.9995 29.7479C51.8132 29.7479 51.5958 29.7166 51.4405 29.6539C51.2542 29.5913 51.0989 29.4974 50.9436 29.3721C50.7883 29.2469 50.6952 29.0903 50.602 28.9024C50.5088 28.7146 50.4778 28.4954 50.4778 28.2449V28.1822C50.4778 27.9317 50.5088 27.7125 50.602 27.5247C50.6952 27.3368 50.7883 27.1802 50.9436 27.055C51.0989 26.9297 51.2542 26.8358 51.4405 26.7731C51.6269 26.7105 51.8132 26.6792 51.9995 26.6792C52.1859 26.6792 52.4032 26.7105 52.5585 26.7731C52.7449 26.8358 52.9001 26.9297 53.0554 27.055C53.2107 27.1802 53.3039 27.3368 53.397 27.5247C53.4902 27.7125 53.5213 27.9317 53.5213 28.1822V28.2449ZM51.9995 29.0277C52.0927 29.0277 52.2169 28.9964 52.3101 28.9651C52.4032 28.9337 52.4964 28.8711 52.5585 28.8085C52.6206 28.7459 52.6827 28.6519 52.7138 28.558C52.7449 28.464 52.7759 28.3388 52.7759 28.2135V28.0883C52.7759 27.963 52.7449 27.8691 52.7138 27.7438C52.6827 27.6499 52.6206 27.556 52.5585 27.4933C52.4964 27.4307 52.4032 27.3681 52.3101 27.3368C52.2169 27.3055 52.1237 27.2741 51.9995 27.2741C51.9064 27.2741 51.7821 27.3055 51.689 27.3368C51.5958 27.3681 51.5026 27.4307 51.4405 27.4933C51.3784 27.556 51.3163 27.6499 51.2852 27.7438C51.2542 27.8378 51.2231 27.963 51.2231 28.0883V28.2135C51.2231 28.3388 51.2542 28.4327 51.2852 28.558C51.3163 28.6519 51.3784 28.7459 51.4405 28.8085C51.5026 28.8711 51.5958 28.9337 51.689 28.9651C51.8132 29.0277 51.9064 29.0277 51.9995 29.0277Z" fill="#222222"/>
<path d="M54.2354 26.7105H55.0739V26.1155C55.0739 25.959 55.136 25.8024 55.2291 25.6771C55.3534 25.5519 55.4776 25.4893 55.6639 25.4893H56.8441V26.2095H55.9745C55.8813 26.2095 55.8192 26.2721 55.8192 26.3973V26.7105H56.9683V27.4307H55.8192V29.6539H55.0739V27.4307H54.2354V26.7105Z" fill="#222222"/>
<path d="M61.3164 25.5205H64.2978V26.272H63.2108V29.6852H62.4344V26.272H61.3475V25.5205H61.3164Z" fill="#222222"/>
<path d="M65.7261 28.4324C65.7261 28.5264 65.7572 28.589 65.7882 28.6829C65.8193 28.7456 65.8814 28.8082 65.9435 28.8708C66.0056 28.9334 66.0677 28.9648 66.1609 28.9961C66.2541 29.0274 66.3472 29.0274 66.4404 29.0274C66.6267 29.0274 66.7509 28.9961 66.8752 28.9334C66.9683 28.8708 67.0305 28.7769 67.0926 28.7143L67.7137 29.0587C67.6826 29.1213 67.6205 29.2153 67.5584 29.2779C67.4963 29.3718 67.4031 29.4345 67.31 29.4971C67.2168 29.5597 67.0926 29.6223 66.9373 29.6537C66.782 29.685 66.6267 29.7163 66.4404 29.7163C66.223 29.7163 66.0056 29.685 65.8503 29.6223C65.664 29.5597 65.5087 29.4345 65.3845 29.3092C65.2603 29.184 65.136 28.9961 65.0739 28.8082C65.0118 28.6203 64.9497 28.4011 64.9497 28.1506V28.1193C64.9497 27.9001 64.9808 27.6809 65.0739 27.493C65.136 27.3052 65.2603 27.1486 65.3845 27.0233C65.5087 26.8981 65.664 26.8042 65.8503 26.7102C66.0367 26.6476 66.223 26.585 66.4093 26.585C66.6578 26.585 66.8752 26.6163 67.0615 26.7102C67.2478 26.8042 67.4031 26.8981 67.4963 27.0547C67.6205 27.1799 67.7137 27.3365 67.7447 27.493C67.8068 27.6496 67.8379 27.8062 67.8379 27.9627V28.3698H65.7261V28.4324ZM66.4404 27.3052C66.2541 27.3052 66.0988 27.3678 65.9745 27.4617C65.8503 27.5557 65.7882 27.6809 65.7572 27.8062H67.1236C67.0926 27.6809 67.0304 27.5557 66.9062 27.4617C66.782 27.3678 66.6267 27.3052 66.4404 27.3052Z" fill="#222222"/>
<path d="M71.5336 28.5894C71.4715 28.9338 71.3162 29.2156 71.0678 29.4348C70.8193 29.654 70.4777 29.748 70.074 29.748C69.8566 29.748 69.6703 29.7166 69.4839 29.654C69.2976 29.5914 69.1423 29.4974 68.987 29.3722C68.8628 29.2469 68.7386 29.0904 68.6765 28.9025C68.5833 28.7146 68.5522 28.4954 68.5522 28.2762V28.1823C68.5522 27.9318 68.5833 27.7439 68.6765 27.556C68.7696 27.3682 68.8628 27.2116 69.0181 27.055C69.1423 26.9298 69.3286 26.8045 69.515 26.7419C69.7013 26.6793 69.8876 26.6479 70.105 26.6479C70.5088 26.6479 70.8504 26.7419 71.0988 26.9611C71.3473 27.1803 71.5025 27.4621 71.5647 27.8065L70.8504 27.9944C70.8193 27.8065 70.7572 27.6813 70.633 27.556C70.5088 27.4308 70.3224 27.3682 70.105 27.3682C70.0119 27.3682 69.8876 27.3995 69.7945 27.4308C69.7013 27.4621 69.6081 27.5247 69.546 27.5873C69.4839 27.65 69.4218 27.7439 69.3908 27.8692C69.3597 27.9631 69.3286 28.0884 69.3286 28.2136V28.2449C69.3286 28.3702 69.3597 28.4954 69.3908 28.5894C69.4218 28.6833 69.4839 28.7772 69.546 28.8399C69.6081 28.9025 69.7013 28.9651 69.7945 28.9964C69.8876 29.0277 69.9808 29.0591 70.105 29.0591C70.3224 29.0591 70.5088 28.9964 70.633 28.9025C70.7572 28.7772 70.8193 28.6207 70.8504 28.4328L71.5336 28.5894Z" fill="#222222"/>
<path d="M73.0244 29.6538H72.2791V25.5205H73.0244V27.2114H73.1176C73.1797 27.0235 73.3039 26.8983 73.4592 26.8043C73.6145 26.7104 73.7697 26.6478 73.9871 26.6478C74.1424 26.6478 74.2666 26.6791 74.3908 26.7104C74.5151 26.773 74.6082 26.8357 74.7014 26.9296C74.7946 27.0235 74.8567 27.1488 74.9188 27.3054C74.9809 27.4619 74.9809 27.6185 74.9809 27.8377V29.6852H74.2356V28.0256C74.2356 27.8064 74.1735 27.6498 74.0803 27.5245C73.9871 27.3993 73.8318 27.3367 73.6455 27.3367C73.4281 27.3367 73.2728 27.3993 73.1486 27.5559C73.0554 27.7124 72.9933 27.9003 72.9933 28.1508V29.6538H73.0244Z" fill="#222222"/>
<path d="M76.6269 29.654H75.8816V26.7106H76.6269V27.149H76.7201C76.7822 26.9924 76.9064 26.8671 77.0306 26.7732C77.1859 26.6793 77.3412 26.6479 77.5586 26.6479C77.7139 26.6479 77.8381 26.6793 77.9623 26.7106C78.0865 26.7419 78.1797 26.8358 78.3039 26.9298C78.3971 27.0237 78.4592 27.149 78.5213 27.3055C78.5834 27.4621 78.6145 27.6187 78.6145 27.8378V29.6853H77.8692V28.0257C77.8692 27.8065 77.807 27.65 77.7139 27.5247C77.6207 27.3995 77.4654 27.3368 77.2791 27.3368C77.0617 27.3368 76.9064 27.3995 76.7822 27.556C76.689 27.7126 76.6269 27.9005 76.6269 28.151V29.654Z" fill="#222222"/>
<path d="M82.3411 28.2449C82.3411 28.4954 82.31 28.7146 82.2169 28.9024C82.1237 29.0903 82.0305 29.2469 81.8752 29.3721C81.72 29.4974 81.5647 29.5913 81.3784 29.6539C81.192 29.7166 81.0057 29.7479 80.8194 29.7479C80.633 29.7479 80.4156 29.7166 80.2603 29.6539C80.074 29.5913 79.9187 29.4974 79.7634 29.3721C79.6082 29.2469 79.515 29.0903 79.4218 28.9024C79.3287 28.7146 79.2976 28.4954 79.2976 28.2449V28.1822C79.2976 27.9317 79.3287 27.7125 79.4218 27.5247C79.515 27.3368 79.6082 27.1802 79.7634 27.055C79.9187 26.9297 80.074 26.8358 80.2603 26.7731C80.4467 26.7105 80.633 26.6792 80.8194 26.6792C81.0057 26.6792 81.2231 26.7105 81.3784 26.7731C81.5647 26.8358 81.72 26.9297 81.8752 27.055C82.0305 27.1802 82.1237 27.3368 82.2169 27.5247C82.31 27.7125 82.3411 27.9317 82.3411 28.1822V28.2449ZM80.8194 29.0277C80.9125 29.0277 81.0367 28.9964 81.1299 28.9651C81.2231 28.9337 81.3162 28.8711 81.3784 28.8085C81.4405 28.7459 81.5026 28.6519 81.5336 28.558C81.5647 28.464 81.5957 28.3388 81.5957 28.2135V28.0883C81.5957 27.963 81.5647 27.8691 81.5336 27.7438C81.5026 27.6186 81.4405 27.556 81.3784 27.4933C81.3162 27.4307 81.2231 27.3681 81.1299 27.3368C81.0367 27.3055 80.9436 27.2741 80.8194 27.2741C80.7262 27.2741 80.602 27.3055 80.5088 27.3368C80.4156 27.3681 80.3225 27.4307 80.2603 27.4933C80.1982 27.556 80.1361 27.6499 80.1051 27.7438C80.074 27.8378 80.043 27.963 80.043 28.0883V28.2135C80.043 28.3388 80.074 28.4327 80.1051 28.558C80.1361 28.6519 80.1982 28.7459 80.2603 28.8085C80.3225 28.8711 80.4156 28.9337 80.5088 28.9651C80.602 29.0277 80.7262 29.0277 80.8194 29.0277Z" fill="#222222"/>
<path d="M83.0554 28.965H84.0803V26.2407H83.0865V25.5205H84.8256V28.965H85.7884V29.6852H83.0554V28.965Z" fill="#222222"/>
<path d="M89.5459 28.2449C89.5459 28.4954 89.5149 28.7146 89.4217 28.9024C89.3285 29.0903 89.2354 29.2469 89.0801 29.3721C88.9248 29.4974 88.7695 29.5913 88.5832 29.6539C88.3969 29.7166 88.2105 29.7479 88.0242 29.7479C87.8378 29.7479 87.6205 29.7166 87.4652 29.6539C87.2788 29.5913 87.1236 29.4974 86.9683 29.3721C86.813 29.2469 86.7198 29.0903 86.6267 28.9024C86.5335 28.7146 86.5024 28.4954 86.5024 28.2449V28.1822C86.5024 27.9317 86.5335 27.7125 86.6267 27.5247C86.7198 27.3368 86.813 27.1802 86.9683 27.055C87.1236 26.9297 87.2788 26.8358 87.4652 26.7731C87.6515 26.7105 87.8378 26.6792 88.0242 26.6792C88.2105 26.6792 88.4279 26.7105 88.5832 26.7731C88.7695 26.8358 88.9248 26.9297 89.0801 27.055C89.2354 27.1802 89.3285 27.3368 89.4217 27.5247C89.5149 27.7125 89.5459 27.9317 89.5459 28.1822V28.2449ZM88.0242 29.0277C88.1174 29.0277 88.2416 28.9964 88.3347 28.9651C88.4279 28.9337 88.5211 28.8711 88.5832 28.8085C88.6453 28.7459 88.7074 28.6519 88.7385 28.558C88.7695 28.464 88.8006 28.3388 88.8006 28.2135V28.0883C88.8006 27.963 88.7695 27.8691 88.7385 27.7438C88.7074 27.6499 88.6453 27.556 88.5832 27.4933C88.5211 27.4307 88.4279 27.3681 88.3347 27.3368C88.2416 27.3055 88.1484 27.2741 88.0242 27.2741C87.931 27.2741 87.8068 27.3055 87.7136 27.3368C87.6205 27.3681 87.5273 27.4307 87.4652 27.4933C87.4031 27.556 87.341 27.6499 87.3099 27.7438C87.2788 27.8378 87.2478 27.963 87.2478 28.0883V28.2135C87.2478 28.3388 87.2788 28.4327 87.3099 28.558C87.341 28.6519 87.4031 28.7459 87.4652 28.8085C87.5273 28.8711 87.6205 28.9337 87.7136 28.9651C87.8068 29.0277 87.931 29.0277 88.0242 29.0277Z" fill="#222222"/>
<path d="M92.3721 29.2468H92.2789C92.2479 29.3094 92.2168 29.3721 92.1547 29.4347C92.1237 29.4973 92.0616 29.5599 91.9684 29.5913C91.9063 29.6539 91.8131 29.6852 91.7199 29.7165C91.6268 29.7478 91.5025 29.7478 91.3473 29.7478C91.1609 29.7478 91.0057 29.7165 90.8504 29.6539C90.6951 29.5913 90.5709 29.4973 90.4466 29.3721C90.3224 29.2468 90.2293 29.0902 90.1671 28.9024C90.105 28.7145 90.074 28.4953 90.074 28.2761V28.1822C90.074 27.9317 90.105 27.7438 90.1671 27.5559C90.2293 27.368 90.3224 27.2115 90.4466 27.0862C90.5709 26.961 90.6951 26.867 90.8504 26.8044C91.0057 26.7418 91.192 26.7104 91.3473 26.7104C91.5957 26.7104 91.782 26.7418 91.9063 26.8357C92.0305 26.9296 92.1547 27.0549 92.2168 27.2115H92.31V26.7731H93.0553V30.4367C93.0553 30.562 93.0243 30.6872 92.9311 30.7812C92.838 30.8751 92.7448 30.9064 92.5895 30.9064H90.633V30.1862H92.1547C92.2479 30.1862 92.31 30.1236 92.31 29.9983V29.2468H92.3721ZM91.5957 29.0276C91.8131 29.0276 91.9994 28.965 92.1547 28.8084C92.31 28.6519 92.3721 28.464 92.3721 28.2135V28.1509C92.3721 27.9003 92.31 27.7125 92.1547 27.5559C91.9994 27.3993 91.8131 27.3367 91.5957 27.3367C91.3783 27.3367 91.192 27.3993 91.0367 27.5559C90.8814 27.7125 90.8193 27.9003 90.8193 28.1509V28.2135C90.8193 28.464 90.8814 28.6519 91.0367 28.8084C91.1609 28.965 91.3473 29.0276 91.5957 29.0276Z" fill="#222222"/>
<path d="M95.8504 26.7105H96.5958V30.3741C96.5958 30.4994 96.5647 30.6247 96.4715 30.7186C96.3784 30.8125 96.2852 30.8438 96.1299 30.8438H94.3908V30.1236H95.6641C95.7573 30.1236 95.8194 30.061 95.8194 29.9358V29.2156H95.7262C95.602 29.56 95.3225 29.7166 94.8877 29.7166C94.7324 29.7166 94.6082 29.6853 94.484 29.6539C94.3597 29.5913 94.2355 29.5287 94.1423 29.4348C94.0492 29.3408 93.9871 29.2156 93.925 29.059C93.8628 28.9024 93.8318 28.7459 93.8318 28.5267V26.6792H94.5771V28.3701C94.5771 28.5893 94.6392 28.7459 94.7324 28.8711C94.8256 28.9964 94.9809 29.059 95.1672 29.059C95.3846 29.059 95.5399 28.9964 95.6641 28.8398C95.7573 28.6832 95.8194 28.4954 95.8194 28.2449V26.7105H95.8504Z" fill="#222222"/>
</svg>
